# xmcd
#
# Track frame offsets:
#	150
#	11134
#	26431
#	46224
#	61823
#	79410
#	93130
#	105952
#	126263
#	144310
#	154580
#	180828
#	193008
#	206600
#
# Disc length: 2902 seconds
#
# Revision: 1
# Processed by: cddbd v1.5.2PL0 Copyright (c) Steve Scherf et al.
# Submitted via: audiograbber 1.83.01
#
DISCID=a80b540e
DTITLE=West Australian Police Pipe Band - WAPOL
DYEAR=2009
DGENRE=Bagpipes
TTITLE0=Kaya
TTITLE1=The Ace Card
TTITLE2=The Dragon's Lair
TTITLE3=The Broken Chanter
TTITLE4=Amazing Grace
TTITLE5=Hornpipes
TTITLE6=Lullaby
TTITLE7=Full Steens Ahead
TTITLE8=Strathspeys and Reels
TTITLE9=Madadh Ruadh
TTITLE10=The Sleeping Tune
TTITLE11=The 100cc
TTITLE12=Big Jigs
TTITLE13=Waltzing Matilda
EXTD=
EXTT0=
EXTT1=
EXTT2=
EXTT3=
EXTT4=
EXTT5=
EXTT6=
EXTT7=
EXTT8=
EXTT9=
EXTT10=
EXTT11=
EXTT12=
EXTT13=
PLAYORDER=
